<svg width="1024" height="1024" viewBox="0 0 1024 1024" fill="none" xmlns="http://www.w3.org/2000/svg">
<path d="M535.369 907.334C526.435 873.993 546.222 839.722 579.563 830.788C612.905 821.854 647.176 841.64 656.11 874.982C665.044 908.324 645.257 942.595 611.916 951.529C578.574 960.462 544.303 940.676 535.369 907.334Z" fill="#CACACA"/>
<path d="M334.785 865.931C343.719 832.589 377.99 812.803 411.331 821.737C444.673 830.671 464.459 864.942 455.526 898.283C446.592 931.625 412.321 951.411 378.979 942.478C345.637 933.544 325.851 899.273 334.785 865.931Z" fill="#F2994B"/>
<path d="M334.785 865.931C343.719 832.589 377.99 812.803 411.331 821.737C444.673 830.671 464.459 864.942 455.526 898.283C446.592 931.625 412.321 951.411 378.979 942.478C345.637 933.544 325.851 899.273 334.785 865.931Z" fill="#404653"/>
<path d="M181.775 729.781C206.182 705.373 245.755 705.373 270.163 729.781C294.571 754.189 294.571 793.762 270.163 818.169C245.755 842.577 206.182 842.577 181.775 818.169C157.367 793.762 157.367 754.189 181.775 729.781Z" fill="#F2994B"/>
<path d="M181.775 729.781C206.182 705.373 245.755 705.373 270.163 729.781C294.571 754.189 294.571 793.762 270.163 818.169C245.755 842.577 206.182 842.577 181.775 818.169C157.367 793.762 157.367 754.189 181.775 729.781Z" fill="#F4A896"/>
<path d="M181.775 729.781C206.182 705.373 245.755 705.373 270.163 729.781C294.571 754.189 294.571 793.762 270.163 818.169C245.755 842.577 206.182 842.577 181.775 818.169C157.367 793.762 157.367 754.189 181.775 729.781Z" fill="#F0F0F0"/>
<path d="M181.775 729.781C206.182 705.373 245.755 705.373 270.163 729.781C294.571 754.189 294.571 793.762 270.163 818.169C245.755 842.577 206.182 842.577 181.775 818.169C157.367 793.762 157.367 754.189 181.775 729.781Z" fill="#9B9B9B"/>
<path d="M117.339 535.368C150.681 526.434 184.952 546.221 193.886 579.562C202.82 612.904 183.033 647.175 149.692 656.109C116.35 665.043 82.079 645.256 73.1451 611.915C64.2113 578.573 83.9977 544.302 117.339 535.368Z" fill="#404653"/>
<path d="M117.339 535.368C150.681 526.434 184.952 546.221 193.886 579.562C202.82 612.904 183.033 647.175 149.692 656.109C116.35 665.043 82.079 645.256 73.1451 611.915C64.2113 578.573 83.9977 544.302 117.339 535.368Z" fill="#404653"/>
<path d="M158.742 334.785C192.084 343.718 211.87 377.989 202.937 411.331C194.003 444.673 159.732 464.459 126.39 455.525C93.0484 446.591 73.262 412.32 82.1958 378.979C91.1296 345.637 125.401 325.851 158.742 334.785Z" fill="#CACACA"/>
<path d="M294.892 181.774C319.3 206.182 319.3 245.755 294.892 270.163C270.485 294.571 230.912 294.571 206.504 270.163C182.096 245.755 182.096 206.182 206.504 181.774C230.912 157.367 270.485 157.367 294.892 181.774Z" fill="#F2994B"/>
<path d="M294.892 181.774C319.3 206.182 319.3 245.755 294.892 270.163C270.485 294.571 230.912 294.571 206.504 270.163C182.096 245.755 182.096 206.182 206.504 181.774C230.912 157.367 270.485 157.367 294.892 181.774Z" fill="#F4A896"/>
<path d="M294.892 181.774C319.3 206.182 319.3 245.755 294.892 270.163C270.485 294.571 230.912 294.571 206.504 270.163C182.096 245.755 182.096 206.182 206.504 181.774C230.912 157.367 270.485 157.367 294.892 181.774Z" fill="#E295B5"/>
<path d="M294.892 181.774C319.3 206.182 319.3 245.755 294.892 270.163C270.485 294.571 230.912 294.571 206.504 270.163C182.096 245.755 182.096 206.182 206.504 181.774C230.912 157.367 270.485 157.367 294.892 181.774Z" fill="#F0F0F0"/>
<path d="M489.306 117.339C498.239 150.681 478.453 184.952 445.111 193.886C411.77 202.82 377.499 183.033 368.565 149.692C359.631 116.35 379.417 82.079 412.759 73.1452C446.101 64.2113 480.372 83.9977 489.306 117.339Z" fill="#F2994B"/>
<path d="M489.306 117.339C498.239 150.681 478.453 184.952 445.111 193.886C411.77 202.82 377.499 183.033 368.565 149.692C359.631 116.35 379.417 82.079 412.759 73.1452C446.101 64.2113 480.372 83.9977 489.306 117.339Z" fill="#F4A896"/>
<path d="M489.306 117.339C498.239 150.681 478.453 184.952 445.111 193.886C411.77 202.82 377.499 183.033 368.565 149.692C359.631 116.35 379.417 82.079 412.759 73.1452C446.101 64.2113 480.372 83.9977 489.306 117.339Z" fill="#8EBC5F"/>
<path d="M489.306 117.339C498.239 150.681 478.453 184.952 445.111 193.886C411.77 202.82 377.499 183.033 368.565 149.692C359.631 116.35 379.417 82.079 412.759 73.1452C446.101 64.2113 480.372 83.9977 489.306 117.339Z" fill="#9B9B9B"/>
<path d="M689.89 158.742C680.956 192.084 646.685 211.87 613.343 202.937C580.002 194.003 560.215 159.732 569.149 126.39C578.083 93.0483 612.354 73.2619 645.696 82.1958C679.037 91.1297 698.824 125.401 689.89 158.742Z" fill="#CACACA"/>
<path d="M842.899 294.891C818.491 319.299 778.918 319.299 754.511 294.891C730.103 270.483 730.103 230.91 754.511 206.502C778.918 182.095 818.491 182.095 842.899 206.502C867.307 230.91 867.307 270.483 842.899 294.891Z" fill="#F2994B"/>
<path d="M842.899 294.891C818.491 319.299 778.918 319.299 754.511 294.891C730.103 270.483 730.103 230.91 754.511 206.502C778.918 182.095 818.491 182.095 842.899 206.502C867.307 230.91 867.307 270.483 842.899 294.891Z" fill="#F4A896"/>
<path d="M842.899 294.891C818.491 319.299 778.918 319.299 754.511 294.891C730.103 270.483 730.103 230.91 754.511 206.502C778.918 182.095 818.491 182.095 842.899 206.502C867.307 230.91 867.307 270.483 842.899 294.891Z" fill="#F0F0F0"/>
<path d="M842.899 294.891C818.491 319.299 778.918 319.299 754.511 294.891C730.103 270.483 730.103 230.91 754.511 206.502C778.918 182.095 818.491 182.095 842.899 206.502C867.307 230.91 867.307 270.483 842.899 294.891Z" fill="#9B9B9B"/>
<path d="M907.335 489.303C873.993 498.237 839.722 478.451 830.789 445.109C821.855 411.767 841.641 377.496 874.983 368.563C908.324 359.629 942.595 379.415 951.529 412.757C960.463 446.098 940.677 480.369 907.335 489.303Z" fill="#F2994B"/>
<path d="M907.335 489.303C873.993 498.237 839.722 478.451 830.789 445.109C821.855 411.767 841.641 377.496 874.983 368.563C908.324 359.629 942.595 379.415 951.529 412.757C960.463 446.098 940.677 480.369 907.335 489.303Z" fill="#F4A896"/>
<path d="M907.335 489.303C873.993 498.237 839.722 478.451 830.789 445.109C821.855 411.767 841.641 377.496 874.983 368.563C908.324 359.629 942.595 379.415 951.529 412.757C960.463 446.098 940.677 480.369 907.335 489.303Z" fill="#8EBC5F"/>
<path d="M907.335 489.303C873.993 498.237 839.722 478.451 830.789 445.109C821.855 411.767 841.641 377.496 874.983 368.563C908.324 359.629 942.595 379.415 951.529 412.757C960.463 446.098 940.677 480.369 907.335 489.303Z" fill="#F0F0F0"/>
<path d="M729.779 842.909C705.371 818.501 705.371 778.928 729.779 754.521C754.186 730.113 793.759 730.113 818.167 754.521C842.575 778.928 842.575 818.501 818.167 842.909C793.759 867.317 754.186 867.317 729.779 842.909Z" fill="#F2994B"/>
<path d="M729.779 842.909C705.371 818.501 705.371 778.928 729.779 754.521C754.186 730.113 793.759 730.113 818.167 754.521C842.575 778.928 842.575 818.501 818.167 842.909C793.759 867.317 754.186 867.317 729.779 842.909Z" fill="#F4A896"/>
<path d="M729.779 842.909C705.371 818.501 705.371 778.928 729.779 754.521C754.186 730.113 793.759 730.113 818.167 754.521C842.575 778.928 842.575 818.501 818.167 842.909C793.759 867.317 754.186 867.317 729.779 842.909Z" fill="#9B9B9B"/>
<path d="M865.929 689.911C832.587 680.977 812.801 646.706 821.735 613.365C830.669 580.023 864.94 560.237 898.281 569.17C931.623 578.104 951.409 612.375 942.475 645.717C933.542 679.059 899.27 698.845 865.929 689.911Z" fill="#F2994B"/>
<path d="M865.929 689.911C832.587 680.977 812.801 646.706 821.735 613.365C830.669 580.023 864.94 560.237 898.281 569.17C931.623 578.104 951.409 612.375 942.475 645.717C933.542 679.059 899.27 698.845 865.929 689.911Z" fill="#F4A896"/>
<path d="M865.929 689.911C832.587 680.977 812.801 646.706 821.735 613.365C830.669 580.023 864.94 560.237 898.281 569.17C931.623 578.104 951.409 612.375 942.475 645.717C933.542 679.059 899.27 698.845 865.929 689.911Z" fill="#404653"/>
<path d="M272 439C305.137 439 332 465.863 332 499C332 532.137 305.137 559 272 559C238.863 559 212 532.137 212 499C212 465.863 238.863 439 272 439Z" fill="#F2994B"/>
<path d="M272 439C305.137 439 332 465.863 332 499C332 532.137 305.137 559 272 559C238.863 559 212 532.137 212 499C212 465.863 238.863 439 272 439Z" fill="#F4A896"/>
<path d="M272 439C305.137 439 332 465.863 332 499C332 532.137 305.137 559 272 559C238.863 559 212 532.137 212 499C212 465.863 238.863 439 272 439Z" fill="#8EBC5F"/>
<path d="M272 439C305.137 439 332 465.863 332 499C332 532.137 305.137 559 272 559C238.863 559 212 532.137 212 499C212 465.863 238.863 439 272 439Z" fill="#868FCA"/>
<path d="M272 439C305.137 439 332 465.863 332 499C332 532.137 305.137 559 272 559C238.863 559 212 532.137 212 499C212 465.863 238.863 439 272 439Z" fill="#9B9B9B"/>
<circle cx="352.319" cy="332.162" r="60" transform="rotate(-45 352.319 332.162)" fill="#404653"/>
<ellipse cx="525" cy="272" rx="60" ry="60" fill="#F2994B"/>
<ellipse cx="525" cy="272" rx="60" ry="60" fill="#F4A896"/>
<ellipse cx="525" cy="272" rx="60" ry="60" fill="#8EBC5F"/>
<ellipse cx="525" cy="272" rx="60" ry="60" fill="#F0F0F0"/>
<circle cx="691.813" cy="352.178" r="60" transform="rotate(45 691.813 352.178)" fill="#404653"/>
<ellipse cx="752" cy="525" rx="60" ry="60" transform="rotate(90 752 525)" fill="#9B9B9B"/>
<circle cx="671.797" cy="691.671" r="60" transform="rotate(135 671.797 691.671)" fill="#404653"/>
<ellipse cx="499" cy="752" rx="60" ry="60" transform="rotate(-180 499 752)" fill="#F2994B"/>
<ellipse cx="499" cy="752" rx="60" ry="60" transform="rotate(-180 499 752)" fill="#F4A896"/>
<ellipse cx="499" cy="752" rx="60" ry="60" transform="rotate(-180 499 752)" fill="#8EBC5F"/>
<ellipse cx="499" cy="752" rx="60" ry="60" transform="rotate(-180 499 752)" fill="#F0F0F0"/>
<circle cx="332.303" cy="671.655" r="60" transform="rotate(-135 332.303 671.655)" fill="#CACACA"/>
</svg>
